<?xml version="1.0"?> <svg width="64" height="64" viewBox="0 0 64 64" fill="none" xmlns="http://www.w3.org/2000/svg">
<path d="M46.14 34.91V60C46.14 60.2652 46.0347 60.5195 45.8471 60.7071C45.6596 60.8946 45.4053 61 45.14 61H10.86C10.5948 61 10.3405 60.8946 10.1529 60.7071C9.96539 60.5195 9.86004 60.2652 9.86004 60V34.91C9.85535 34.8802 9.85535 34.8498 9.86004 34.82C9.85525 34.7601 9.85525 34.6999 9.86004 34.64C9.87806 34.5733 9.90497 34.5094 9.94004 34.45C9.9641 34.3998 9.99433 34.3527 10.03 34.31C10.0719 34.2496 10.1225 34.1957 10.18 34.15C10.1975 34.1276 10.2176 34.1074 10.24 34.09L27.38 22.09C27.5474 21.9738 27.7463 21.9116 27.95 21.9116C28.1538 21.9116 28.3526 21.9738 28.52 22.09L45.66 34.09C45.6825 34.1074 45.7026 34.1276 45.72 34.15C45.7776 34.1957 45.8281 34.2496 45.87 34.31C45.9057 34.3527 45.936 34.3998 45.96 34.45C45.9951 34.5094 46.022 34.5733 46.04 34.64C46.044 34.6966 46.044 34.7534 46.04 34.81C46.0785 34.8377 46.1123 34.8715 46.14 34.91Z" fill="#40596B"></path>
<path d="M35.37 42.6201V61.0001H20.63V42.6201C20.63 42.3549 20.7354 42.1005 20.9229 41.913C21.1104 41.7255 21.3648 41.6201 21.63 41.6201H34.37C34.6352 41.6201 34.8896 41.7255 35.0771 41.913C35.2646 42.1005 35.37 42.3549 35.37 42.6201Z" fill="#E6E6E6"></path>
<path d="M42.78 3C42.5148 3 42.2605 3.10536 42.0729 3.29289C41.8854 3.48043 41.78 3.73478 41.78 4C41.78 4.26522 41.8854 4.51957 42.0729 4.70711C42.2605 4.89464 42.5148 5 42.78 5C47.09 5.01852 51.217 6.74433 54.2571 9.79945C57.2972 12.8546 59.0027 16.99 59 21.3C59 21.5652 59.1054 21.8196 59.2929 22.0071C59.4805 22.1946 59.7348 22.3 60 22.3C60.2652 22.3 60.5196 22.1946 60.7071 22.0071C60.8947 21.8196 61 21.5652 61 21.3C61.0054 16.4588 59.09 11.8131 55.6742 8.38234C52.2585 4.95157 47.6212 3.01589 42.78 3V3Z" fill="#22B573"></path>
<path d="M42.78 7.84009C42.5148 7.84009 42.2605 7.94544 42.0729 8.13298C41.8854 8.32052 41.78 8.57487 41.78 8.84009C41.78 9.1053 41.8854 9.35966 42.0729 9.54719C42.2605 9.73473 42.5148 9.84009 42.78 9.84009C45.8072 9.85596 48.7046 11.071 50.8376 13.219C52.9707 15.367 54.1654 18.2729 54.16 21.3001C54.16 21.5653 54.2654 21.8197 54.4529 22.0072C54.6405 22.1947 54.8948 22.3001 55.16 22.3001C55.4252 22.3001 55.6796 22.1947 55.8671 22.0072C56.0547 21.8197 56.16 21.5653 56.16 21.3001C56.1654 17.7425 54.7599 14.3279 52.2518 11.8048C49.7437 9.28171 46.3376 7.85597 42.78 7.84009V7.84009Z" fill="#22B573"></path>
<path d="M42.79 12.6699C42.5248 12.6699 42.2705 12.7753 42.0829 12.9628C41.8954 13.1504 41.79 13.4047 41.79 13.6699C41.79 13.9351 41.8954 14.1895 42.0829 14.377C42.2705 14.5646 42.5248 14.6699 42.79 14.6699C44.5362 14.6858 46.2051 15.3919 47.4323 16.6341C48.6596 17.8764 49.3454 19.5537 49.34 21.2999C49.34 21.5651 49.4454 21.8195 49.6329 22.007C49.8205 22.1946 50.0748 22.2999 50.34 22.2999C50.6053 22.2999 50.8596 22.1946 51.0471 22.007C51.2347 21.8195 51.34 21.5651 51.34 21.2999C51.3454 19.0233 50.4488 16.8372 48.8465 15.2199C47.2442 13.6026 45.0666 12.6858 42.79 12.6699Z" fill="#22B573"></path>
<path d="M42.75 17.52C42.0075 17.5181 41.2811 17.7366 40.6629 18.1479C40.0447 18.5591 39.5625 19.1447 39.2774 19.8303C38.9924 20.516 38.9172 21.2708 39.0616 21.9992C39.206 22.7275 39.5634 23.3966 40.0884 23.9217C40.6135 24.4467 41.2826 24.8041 42.0109 24.9485C42.7393 25.0928 43.4941 25.0177 44.1797 24.7327C44.8654 24.4476 45.4509 23.9654 45.8622 23.3472C46.2735 22.729 46.492 22.0026 46.49 21.26C46.4874 20.2689 46.0925 19.3192 45.3917 18.6184C44.6909 17.9176 43.7411 17.5227 42.75 17.52V17.52Z" fill="#22B573"></path>
<path d="M15.19 20.7201C14.5993 20.1428 13.806 19.8197 12.98 19.8201C12.5656 19.8213 12.1555 19.9049 11.7736 20.0659C11.3918 20.2269 11.0456 20.4622 10.7554 20.758C10.4651 21.0538 10.2365 21.4043 10.0828 21.7892C9.92913 22.1741 9.8534 22.5857 9.86002 23.0001V30.3001C9.86002 30.3001 9.86002 30.3701 9.86002 30.4001C9.87145 30.534 9.91244 30.6638 9.98002 30.7801C9.98002 30.7801 9.98002 30.8501 9.98002 30.8701L10.03 30.9201C10.1013 31.0033 10.1857 31.0742 10.28 31.1301L10.38 31.2001C10.5111 31.2636 10.6544 31.2977 10.8 31.3001C10.9199 31.2979 11.0385 31.2742 11.15 31.2301L11.25 31.1801C11.2928 31.1662 11.3332 31.146 11.37 31.1201L15.62 28.1201C15.6424 28.1027 15.6626 28.0825 15.68 28.0601C15.7317 28.015 15.7786 27.9647 15.82 27.9101L15.93 27.7601C15.9589 27.7034 15.9791 27.6427 15.99 27.5801C16.0003 27.5138 16.0003 27.4463 15.99 27.3801C15.9945 27.3536 15.9945 27.3265 15.99 27.3001V23.0001C16.0348 22.1643 15.7472 21.3446 15.19 20.7201V20.7201Z" fill="#40596B"></path>
<path d="M51.76 33.68L28.57 17.41C28.4026 17.2939 28.2038 17.2317 28 17.2317C27.7963 17.2317 27.5974 17.2939 27.43 17.41L4.24003 33.68C3.92748 33.8987 3.66106 34.1768 3.45598 34.4984C3.2509 34.82 3.11117 35.1789 3.04478 35.5545C2.91069 36.313 3.08344 37.0938 3.52503 37.725C3.96661 38.3563 4.64086 38.7862 5.39945 38.9203C6.15803 39.0544 6.93881 38.8816 7.57003 38.44L28 24.1L48.43 38.44C49.0612 38.8816 49.842 39.0544 50.6006 38.9203C51.3592 38.7862 52.0334 38.3563 52.475 37.725C52.9166 37.0938 53.0894 36.313 52.9553 35.5545C52.8212 34.7959 52.3912 34.1216 51.76 33.68V33.68Z" fill="#F8B64C"></path>
</svg>